# xmcd
#
# Track frame offsets: 
#        150
#        25293
#        46439
#        70341
#        95956
#        121376
#        144036
#        169968
#        190009
#        216411
#
# Disc length: 3149 seconds
#
# Revision: 0
# Processed by: cddbd v1.5.2PL0 Copyright (c) Steve Scherf et al.
# Submitted via: ExactAudioCopyFreeDBPlugin 1.0
#
DISCID=950c4b0a
DTITLE=Various Artist - Bo ben la
DYEAR=1900
DGENRE=
TTITLE0=Cam Ly - Bo ben la
TTITLE1=Dan Truong - Email tinh yeu
TTITLE2=Phuong Thanh - Me que
TTITLE3=Minh Thuan - Mua ha mai xa
TTITLE4=Lam Truong - Mua he lap lanh
TTITLE5=Cam Ly - Tinh buon
TTITLE6=Minh Thuan - Dau tinh da xa
TTITLE7=Phuong Thanh - Sinh nhat ko co anh
TTITLE8=Lam Truong - Vo ve noi dau
TTITLE9=Dan Truong Cam Ly - Mua cuoi tuan
EXTD=
EXTT0=
EXTT1=
EXTT2=
EXTT3=
EXTT4=
EXTT5=
EXTT6=
EXTT7=
EXTT8=
EXTT9=
PLAYORDER=
